<?xml version="1.0" encoding="UTF-8" standalone="no"?>
<!DOCTYPE svg PUBLIC "-//W3C//DTD SVG 1.1//EN" "http://www.w3.org/Graphics/SVG/1.1/DTD/svg11.dtd">
<svg width="100%" height="100%" viewBox="0 0 500 245" version="1.1" xmlns="http://www.w3.org/2000/svg" xmlns:xlink="http://www.w3.org/1999/xlink" xml:space="preserve" xmlns:serif="http://www.serif.com/" style="fill-rule:evenodd;clip-rule:evenodd;stroke-miterlimit:10;">
    <g id="microgridbreaker" transform="matrix(1.33333,0,0,-1.33333,-14.6533,251.729)">
        <g id="path54" transform="matrix(1,0,0,1,-29.7353,0.424992)">
            <path d="M271.785,92.128L276.331,92.128C276.579,92.128 276.788,92.379 276.788,92.676L276.788,95.949C276.788,96.245 276.579,96.497 276.331,96.497L272.145,96.497C271.872,96.497 271.606,96.198 271.589,95.871L271.422,92.592C271.413,92.427 271.467,92.32 271.515,92.26C271.562,92.199 271.647,92.128 271.785,92.128" style="fill:rgb(5,6,6);fill-rule:nonzero;"/>
        </g>
        <g id="path56" transform="matrix(1,0,0,1,-29.7353,0.424992)">
            <path d="M279.437,92.128L283.983,92.128C284.121,92.128 284.206,92.199 284.254,92.26C284.302,92.32 284.355,92.427 284.346,92.592L284.178,95.871C284.161,96.198 283.897,96.497 283.623,96.497L279.437,96.497C279.189,96.497 278.98,96.245 278.98,95.949L278.98,92.676C278.98,92.379 279.189,92.128 279.437,92.128" style="fill:rgb(5,6,6);fill-rule:nonzero;"/>
        </g>
        <g id="path58" transform="matrix(1,0,0,1,-29.7353,0.424992)">
            <path d="M287.089,92.128L291.635,92.128C291.731,92.128 291.806,92.162 291.855,92.226C291.903,92.292 291.922,92.387 291.91,92.501L291.571,95.802C291.534,96.159 291.216,96.497 290.916,96.497L286.731,96.497C286.591,96.497 286.506,96.425 286.458,96.365C286.412,96.304 286.357,96.198 286.366,96.033L286.533,92.754C286.551,92.427 286.816,92.128 287.089,92.128" style="fill:rgb(5,6,6);fill-rule:nonzero;"/>
        </g>
        <g id="path60" transform="matrix(1,0,0,1,-29.7353,0.424992)">
            <path d="M263.341,84.404L268.283,84.404C268.556,84.404 268.82,84.703 268.838,85.03L269.043,89.035C269.052,89.201 268.998,89.307 268.95,89.367C268.903,89.428 268.817,89.5 268.679,89.5L264.134,89.5C263.834,89.5 263.515,89.163 263.479,88.807L263.065,84.778C263.053,84.663 263.073,84.569 263.12,84.504C263.168,84.439 263.245,84.404 263.341,84.404" style="fill:rgb(5,6,6);fill-rule:nonzero;"/>
        </g>
        <g id="path62" transform="matrix(1,0,0,1,-29.7353,0.424992)">
            <path d="M271.389,84.404L276.331,84.404C276.579,84.404 276.788,84.656 276.788,84.952L276.788,88.952C276.788,89.248 276.579,89.5 276.331,89.5L271.785,89.5C271.512,89.5 271.248,89.201 271.231,88.874L271.024,84.869C271.016,84.703 271.071,84.597 271.118,84.537C271.165,84.476 271.251,84.404 271.389,84.404" style="fill:rgb(5,6,6);fill-rule:nonzero;"/>
        </g>
        <g id="path64" transform="matrix(1,0,0,1,-29.7353,0.424992)">
            <path d="M279.437,84.404L284.379,84.404C284.518,84.404 284.603,84.476 284.65,84.537C284.698,84.597 284.752,84.703 284.743,84.869L284.537,88.874C284.52,89.201 284.257,89.5 283.983,89.5L279.437,89.5C279.189,89.5 278.98,89.248 278.98,88.952L278.98,84.952C278.98,84.656 279.189,84.404 279.437,84.404" style="fill:rgb(5,6,6);fill-rule:nonzero;"/>
        </g>
        <g id="path66" transform="matrix(1,0,0,1,-29.7353,0.424992)">
            <path d="M287.089,89.5C286.951,89.5 286.865,89.428 286.818,89.367C286.771,89.307 286.715,89.201 286.724,89.035L286.93,85.03C286.948,84.703 287.212,84.404 287.486,84.404L292.427,84.404C292.523,84.404 292.6,84.439 292.647,84.504C292.695,84.569 292.715,84.663 292.703,84.778L292.29,88.806C292.253,89.162 291.935,89.5 291.635,89.5L287.089,89.5Z" style="fill:rgb(5,6,6);fill-rule:nonzero;"/>
        </g>
        <g id="path68" transform="matrix(1,0,0,1,-29.7353,0.424992)">
            <path d="M262.462,75.838L267.844,75.838C268.117,75.838 268.381,76.137 268.399,76.464L268.647,81.312C268.656,81.477 268.601,81.584 268.553,81.644C268.506,81.705 268.421,81.777 268.283,81.777L263.341,81.777C263.041,81.777 262.722,81.439 262.686,81.082L262.186,76.211C262.174,76.097 262.193,76.002 262.242,75.937C262.29,75.873 262.366,75.838 262.462,75.838" style="fill:rgb(5,6,6);fill-rule:nonzero;"/>
        </g>
        <g id="path70" transform="matrix(1,0,0,1,-29.7353,0.424992)">
            <path d="M270.95,75.838L276.331,75.838C276.579,75.838 276.788,76.089 276.788,76.386L276.788,81.229C276.788,81.525 276.579,81.777 276.331,81.777L271.389,81.777C271.116,81.777 270.851,81.478 270.834,81.15L270.585,76.302C270.577,76.137 270.631,76.03 270.679,75.97C270.726,75.91 270.812,75.838 270.95,75.838" style="fill:rgb(5,6,6);fill-rule:nonzero;"/>
        </g>
        <g id="path72" transform="matrix(1,0,0,1,-29.7353,0.424992)">
            <path d="M279.437,75.838L284.818,75.838C284.956,75.838 285.042,75.91 285.089,75.97C285.136,76.03 285.192,76.137 285.183,76.302L284.934,81.15C284.917,81.478 284.652,81.777 284.379,81.777L279.437,81.777C279.189,81.777 278.98,81.525 278.98,81.229L278.98,76.386C278.98,76.089 279.189,75.838 279.437,75.838" style="fill:rgb(5,6,6);fill-rule:nonzero;"/>
        </g>
        <g id="path74" transform="matrix(1,0,0,1,-29.7353,0.424992)">
            <path d="M287.486,81.777C287.347,81.777 287.261,81.705 287.214,81.644C287.167,81.584 287.112,81.477 287.121,81.312L287.37,76.464C287.387,76.137 287.651,75.838 287.924,75.838L293.306,75.838C293.403,75.838 293.479,75.872 293.527,75.937C293.575,76.002 293.593,76.097 293.582,76.211L293.082,81.082C293.045,81.439 292.726,81.777 292.427,81.777L287.486,81.777Z" style="fill:rgb(5,6,6);fill-rule:nonzero;"/>
        </g>
        <g id="path76" transform="matrix(1,0,0,1,-29.7353,0.424992)">
            <path d="M261.481,66.282L267.353,66.282C267.626,66.282 267.891,66.581 267.908,66.908L268.208,72.745C268.217,72.911 268.162,73.018 268.114,73.078C268.067,73.138 267.982,73.21 267.844,73.21L262.462,73.21C262.161,73.21 261.843,72.873 261.806,72.516L261.206,66.656C261.194,66.541 261.213,66.447 261.261,66.381C261.309,66.317 261.385,66.282 261.481,66.282" style="fill:rgb(5,6,6);fill-rule:nonzero;"/>
        </g>
        <g id="path78" transform="matrix(1,0,0,1,-29.7353,0.424992)">
            <path d="M270.459,66.282L276.331,66.282C276.579,66.282 276.788,66.534 276.788,66.83L276.788,72.662C276.788,72.958 276.579,73.21 276.331,73.21L270.95,73.21C270.676,73.21 270.412,72.911 270.395,72.584L270.095,66.747C270.086,66.581 270.141,66.475 270.188,66.414C270.236,66.354 270.321,66.282 270.459,66.282" style="fill:rgb(5,6,6);fill-rule:nonzero;"/>
        </g>
        <g id="path80" transform="matrix(1,0,0,1,-29.7353,0.424992)">
            <path d="M279.437,66.282L285.309,66.282C285.447,66.282 285.532,66.354 285.579,66.414C285.627,66.475 285.682,66.581 285.673,66.747L285.374,72.584C285.357,72.911 285.091,73.21 284.818,73.21L279.437,73.21C279.189,73.21 278.98,72.958 278.98,72.662L278.98,66.83C278.98,66.534 279.189,66.282 279.437,66.282" style="fill:rgb(5,6,6);fill-rule:nonzero;"/>
        </g>
        <g id="path82" transform="matrix(1,0,0,1,-29.7353,0.424992)">
            <path d="M287.924,73.21C287.786,73.21 287.701,73.138 287.654,73.078C287.605,73.018 287.552,72.911 287.561,72.746L287.86,66.908C287.878,66.581 288.142,66.282 288.414,66.282L294.286,66.282C294.383,66.282 294.46,66.317 294.507,66.381C294.556,66.446 294.574,66.542 294.562,66.656L293.961,72.516C293.925,72.873 293.606,73.21 293.306,73.21L287.924,73.21Z" style="fill:rgb(5,6,6);fill-rule:nonzero;"/>
        </g>
        <g id="path84" transform="matrix(1,0,0,1,-29.7353,0.424992)">
            <path d="M264.134,92.128L268.679,92.128C268.953,92.128 269.217,92.427 269.235,92.754L269.403,96.033C269.411,96.198 269.357,96.304 269.309,96.365C269.262,96.425 269.177,96.497 269.039,96.497L264.852,96.497C264.552,96.497 264.233,96.159 264.197,95.802L263.858,92.501C263.846,92.387 263.865,92.292 263.913,92.226C263.961,92.162 264.037,92.128 264.134,92.128" style="fill:rgb(5,6,6);fill-rule:nonzero;"/>
        </g>
        <g id="path86" transform="matrix(1,0,0,1,-29.7353,0.424992)">
            <path d="M270.232,55.147L285.536,55.147C286.141,55.147 286.632,55.734 286.632,56.461C286.632,57.187 286.141,57.775 285.536,57.775L278.98,57.775L278.98,64.968C278.98,65.695 278.489,66.283 277.884,66.283C277.497,66.283 277.174,66.028 276.979,65.665C276.869,65.461 276.789,65.23 276.789,64.968L276.789,63.71L276.789,63.654L276.789,57.775L270.232,57.775C269.627,57.775 269.137,57.187 269.137,56.461C269.137,55.734 269.627,55.147 270.232,55.147" style="fill:rgb(5,6,6);fill-rule:nonzero;"/>
        </g>
        <path id="path88" d="M323.401,26.307L367.108,26.307C368.835,26.307 370.237,27.706 370.237,29.436C370.237,31.165 368.835,32.565 367.108,32.565L348.382,32.565L348.382,49.695C348.382,51.425 346.981,52.825 345.253,52.825C344.149,52.825 343.224,52.219 342.669,51.354C342.354,50.869 342.124,50.319 342.124,49.695L342.124,46.698L342.124,46.566L342.124,32.565L323.401,32.565C321.672,32.565 320.272,31.165 320.272,29.436C320.272,27.706 321.672,26.307 323.401,26.307" style="fill:rgb(5,6,6);fill-rule:nonzero;"/>
        <path id="path96" d="M147.933,26.547L176.64,26.547C178.367,26.547 179.769,27.946 179.769,29.676C179.769,31.405 178.367,32.805 176.64,32.805L172.914,32.805L172.914,49.935C172.914,51.665 171.513,53.065 169.785,53.065C168.681,53.065 167.756,52.459 167.201,51.594C166.886,51.109 166.656,50.559 166.656,49.935L166.656,46.938L166.656,46.806L166.656,32.805L147.933,32.805C146.204,32.805 144.804,31.405 144.804,29.676C144.804,27.946 146.204,26.547 147.933,26.547" style="fill:rgb(5,6,6);fill-rule:nonzero;"/>
        <g id="path106" transform="matrix(1,0,0,1,-29.7353,0.424992)">
            <path d="M255.933,26.547L299.64,26.547C301.367,26.547 302.769,27.946 302.769,29.676C302.769,31.405 301.367,32.805 299.64,32.805L280.914,32.805L280.914,49.935C280.914,51.665 279.513,53.065 277.785,53.065C276.681,53.065 275.756,52.459 275.201,51.594C274.886,51.109 274.656,50.559 274.656,49.935L274.656,46.938L274.656,46.806L274.656,32.805L255.933,32.805C254.204,32.805 252.804,31.405 252.804,29.676C252.804,27.946 254.204,26.547 255.933,26.547" style="fill:rgb(5,6,6);fill-rule:nonzero;"/>
        </g>
        <path id="path108" d="M35.44,29.713L374.788,29.713" style="fill:none;stroke:rgb(5,6,6);stroke-width:7px;"/>
        <path id="path110" d="M39.12,36.78C39.12,40.058 36.458,42.72 33.18,42.72L18.18,42.72C14.902,42.72 12.24,40.058 12.24,36.78L12.24,24.9C12.24,21.622 14.902,18.96 18.18,18.96L33.18,18.96C36.458,18.96 39.12,21.622 39.12,24.9L39.12,36.78Z" style="fill:white;stroke:rgb(5,6,6);stroke-width:2.5px;"/>
        <path id="path112" d="M14.4,40.8L37.2,21.36" style="fill:none;stroke:rgb(5,6,6);stroke-width:2.5px;"/>
        <path id="path114" d="M37.2,40.8L14.4,21.36" style="fill:none;stroke:rgb(5,6,6);stroke-width:2.5px;"/>
        <g id="text120" transform="matrix(1,0,0,-1,11.9769,7.12418)">
            <text x="0px" y="0px" style="font-family:'ArialMT', 'Arial', sans-serif;font-size:12px;fill:rgb(5,6,6);">Point of common coupling</text>
        </g>
        <g id="path160" transform="matrix(1,0,0,1,-355.3,-9.66)">
            <path d="M384.554,64.37C384.554,64.205 384.421,64.072 384.256,64.072C384.091,64.072 383.958,64.205 383.958,64.37L383.958,69.552C383.958,69.718 384.091,69.851 384.256,69.851C384.421,69.851 384.554,69.718 384.554,69.552L384.554,64.37Z" style="fill:white;fill-rule:nonzero;"/>
        </g>
        <g id="path162" transform="matrix(1,0,0,1,-355.3,-9.66)">
            <path d="M384.554,64.37C384.554,64.205 384.421,64.072 384.256,64.072C384.091,64.072 383.958,64.205 383.958,64.37L383.958,69.552C383.958,69.718 384.091,69.851 384.256,69.851C384.421,69.851 384.554,69.718 384.554,69.552L384.554,64.37Z" style="fill:none;stroke:rgb(27,23,24);stroke-width:1px;"/>
        </g>
        <g id="path164" transform="matrix(1,0,0,1,-355.3,-9.66)">
            <path d="M385.653,62.009C385.653,58.841 383.085,56.272 379.917,56.272C376.749,56.272 374.181,58.841 374.181,62.009C374.181,65.177 376.749,67.745 379.917,67.745C383.085,67.745 385.653,65.177 385.653,62.009Z" style="fill:none;stroke:rgb(27,23,24);stroke-width:1px;"/>
        </g>
        <g id="path166" transform="matrix(1,0,0,1,-355.3,-9.66)">
            <path d="M384.742,62.052C384.742,59.375 382.571,57.204 379.894,57.204C377.216,57.204 375.045,59.375 375.045,62.052C375.045,64.731 377.216,66.901 379.894,66.901C382.571,66.901 384.742,64.731 384.742,62.052Z" style="fill:none;stroke:rgb(27,23,24);stroke-width:1px;"/>
        </g>
        <g id="path168" transform="matrix(1,0,0,1,-355.3,-9.66)">
            <path d="M383.958,63.763C383.958,63.337 383.66,63.331 383.292,63.331L376.541,63.331C376.174,63.331 375.876,63.337 375.876,63.763L375.876,64.695C375.876,65.12 376.174,65.039 376.541,65.039L383.292,65.039C383.66,65.039 383.958,65.12 383.958,64.695L383.958,63.763Z" style="fill:white;fill-rule:nonzero;"/>
        </g>
        <g id="path170" transform="matrix(1,0,0,1,-355.3,-9.66)">
            <path d="M383.958,63.763C383.958,63.337 383.66,63.331 383.292,63.331L376.541,63.331C376.174,63.331 375.876,63.337 375.876,63.763L375.876,64.695C375.876,65.12 376.174,65.039 376.541,65.039L383.292,65.039C383.66,65.039 383.958,65.12 383.958,64.695L383.958,63.763Z" style="fill:none;stroke:rgb(27,23,24);stroke-width:1px;"/>
        </g>
        <g id="path172" transform="matrix(1,0,0,1,-355.3,-9.66)">
            <path d="M379.14,59.662C379.14,59.673 379.137,59.686 379.13,59.693L378.392,60.584L379.124,61.375C379.134,61.385 379.14,61.398 379.14,61.412C379.14,61.432 379.124,61.449 379.091,61.449L378.858,61.449C378.825,61.449 378.812,61.442 378.791,61.419L378.126,60.67L378.126,62.054C378.126,62.09 378.097,62.12 378.06,62.12L377.9,62.12C377.864,62.12 377.834,62.09 377.834,62.054L377.834,59.686C377.834,59.65 377.864,59.62 377.9,59.62L378.06,59.62C378.097,59.62 378.126,59.65 378.126,59.686L378.126,60.481L378.788,59.662C378.815,59.629 378.828,59.62 378.864,59.62L379.104,59.62C379.127,59.62 379.14,59.64 379.14,59.662Z" style="fill:rgb(27,23,24);fill-rule:nonzero;"/>
        </g>
        <g id="path174" transform="matrix(1,0,0,1,-355.3,-9.66)">
            <path d="M381.887,62.034C381.887,62.067 381.864,62.09 381.83,62.09L381.638,62.09C381.611,62.09 381.588,62.07 381.581,62.034L381.259,59.916C381.252,59.882 381.255,59.865 381.242,59.865C381.229,59.865 381.226,59.886 381.219,59.916L380.893,61.146C380.869,61.235 380.823,61.279 380.736,61.279L380.524,61.279C380.437,61.279 380.391,61.235 380.367,61.146L380.042,59.916C380.035,59.886 380.032,59.865 380.018,59.865C380.005,59.865 380.008,59.882 380.002,59.916L379.679,62.034C379.672,62.07 379.649,62.09 379.623,62.09L379.43,62.09C379.397,62.09 379.373,62.067 379.373,62.034C379.373,62.03 379.373,62.027 379.373,62.024L379.742,59.776C379.766,59.64 379.842,59.607 379.948,59.607L380.088,59.607C380.181,59.607 380.251,59.673 380.278,59.773L380.607,61.003C380.614,61.033 380.617,61.033 380.627,61.033L380.633,61.033C380.643,61.033 380.647,61.033 380.654,61.003L380.979,59.773C381.006,59.673 381.075,59.607 381.169,59.607L381.312,59.607C381.418,59.607 381.495,59.64 381.518,59.776L381.887,62.024C381.887,62.027 381.887,62.03 381.887,62.034Z" style="fill:rgb(27,23,24);fill-rule:nonzero;"/>
        </g>
        <g id="path176" transform="matrix(1,0,0,1,-355.3,-9.66)">
            <path d="M383.373,70.387C383.373,70.387 383.379,70.427 383.397,70.488C383.422,70.547 383.429,70.633 383.505,70.715C383.576,70.802 383.686,70.907 383.811,70.957C383.875,70.982 383.94,71.027 384.014,71.031L384.236,71.063L384.457,71.031C384.533,71.028 384.597,70.983 384.66,70.958C384.79,70.905 384.885,70.807 384.955,70.724C385.028,70.646 385.054,70.545 385.076,70.487C385.094,70.425 385.097,70.387 385.097,70.387C385.097,70.387 385.06,70.388 384.992,70.391C384.928,70.392 384.855,70.411 384.767,70.411C384.593,70.423 384.41,70.419 384.236,70.427C384.148,70.42 384.057,70.43 383.97,70.421C383.928,70.414 383.873,70.428 383.839,70.421C383.802,70.416 383.76,70.418 383.716,70.419C383.631,70.423 383.538,70.389 383.477,70.39C383.414,70.386 383.373,70.387 383.373,70.387Z" style="fill:rgb(27,23,24);fill-rule:nonzero;"/>
        </g>
        <g id="path178" transform="matrix(1,0,0,1,-355.3,-9.66)">
            <path d="M382.579,71.181C382.579,71.181 382.606,71.238 382.662,71.33C382.726,71.417 382.779,71.557 382.929,71.676C383.001,71.737 383.085,71.807 383.181,71.872C383.274,71.949 383.38,71.982 383.493,72.029C383.606,72.068 383.721,72.134 383.849,72.139C383.977,72.155 384.106,72.17 384.236,72.187C384.365,72.17 384.494,72.155 384.622,72.139C384.751,72.136 384.865,72.068 384.978,72.029C385.09,71.983 385.2,71.948 385.288,71.874C385.379,71.812 385.459,71.745 385.53,71.684C385.678,71.57 385.75,71.414 385.811,71.329C385.866,71.236 385.891,71.181 385.891,71.181C385.891,71.181 385.828,71.2 385.727,71.234C385.623,71.262 385.505,71.335 385.342,71.372C385.262,71.391 385.177,71.412 385.093,71.441C385.012,71.477 384.91,71.468 384.819,71.493C384.634,71.539 384.433,71.531 384.236,71.55C384.038,71.531 383.837,71.54 383.652,71.493C383.562,71.47 383.456,71.477 383.382,71.444C383.302,71.417 383.22,71.398 383.141,71.38C382.98,71.347 382.842,71.258 382.741,71.233C382.64,71.197 382.579,71.181 382.579,71.181Z" style="fill:rgb(27,23,24);fill-rule:nonzero;"/>
        </g>
        <g id="path180" transform="matrix(1,0,0,1,-355.3,-9.66)">
            <path d="M381.797,72.004C381.797,72.004 381.846,72.08 381.938,72.201C382.042,72.316 382.142,72.512 382.367,72.667C382.477,72.749 382.6,72.838 382.738,72.926C382.871,73.029 383.029,73.068 383.192,73.133C383.356,73.185 383.52,73.274 383.705,73.278C383.886,73.3 384.071,73.321 384.256,73.342C384.44,73.321 384.625,73.3 384.807,73.279C384.991,73.274 385.156,73.185 385.32,73.134C385.481,73.069 385.643,73.029 385.77,72.928C385.904,72.843 386.024,72.756 386.132,72.676C386.356,72.524 386.474,72.312 386.574,72.2C386.669,72.077 386.715,72.004 386.715,72.004C386.715,72.004 386.634,72.041 386.492,72.106C386.347,72.16 386.182,72.29 385.944,72.363C385.827,72.401 385.702,72.443 385.576,72.495C385.454,72.558 385.301,72.555 385.161,72.596C385.017,72.625 384.873,72.672 384.718,72.671C384.565,72.683 384.41,72.694 384.256,72.706C384.101,72.694 383.946,72.683 383.794,72.672C383.639,72.673 383.495,72.626 383.351,72.597C383.211,72.557 383.054,72.558 382.939,72.498C382.817,72.449 382.695,72.409 382.578,72.372C382.343,72.302 382.159,72.157 382.017,72.104C381.88,72.038 381.797,72.005 381.797,72.005L381.797,72.004Z" style="fill:rgb(27,23,24);fill-rule:nonzero;"/>
        </g>
        <g id="path182" transform="matrix(1,0,0,1,-355.3,-9.66)">
            <path d="M378.195,64.053L378.195,64.21C378.195,64.468 378.085,64.572 377.91,64.572C377.733,64.572 377.623,64.468 377.623,64.21L377.623,64.053C377.623,63.796 377.733,63.691 377.91,63.691C378.085,63.691 378.195,63.796 378.195,64.053ZM378.088,64.053C378.088,63.857 378.019,63.781 377.91,63.781C377.8,63.781 377.73,63.857 377.73,64.053L377.73,64.21C377.73,64.407 377.8,64.483 377.91,64.483C378.019,64.483 378.088,64.407 378.088,64.21L378.088,64.053Z" style="fill:rgb(27,23,24);fill-rule:nonzero;"/>
        </g>
        <g id="path184" transform="matrix(1,0,0,1,-355.3,-9.66)">
            <path d="M378.899,64.053L378.899,64.21C378.899,64.468 378.789,64.572 378.613,64.572C378.438,64.572 378.327,64.468 378.327,64.21L378.327,64.053C378.327,63.796 378.438,63.691 378.613,63.691C378.789,63.691 378.899,63.796 378.899,64.053ZM378.792,64.053C378.792,63.857 378.722,63.781 378.613,63.781C378.504,63.781 378.434,63.857 378.434,64.053L378.434,64.21C378.434,64.407 378.504,64.483 378.613,64.483C378.722,64.483 378.792,64.407 378.792,64.21L378.792,64.053Z" style="fill:rgb(27,23,24);fill-rule:nonzero;"/>
        </g>
        <g id="path186" transform="matrix(1,0,0,1,-355.3,-9.66)">
            <path d="M379.603,64.053L379.603,64.21C379.603,64.468 379.493,64.572 379.317,64.572C379.142,64.572 379.031,64.468 379.031,64.21L379.031,64.053C379.031,63.796 379.142,63.691 379.317,63.691C379.493,63.691 379.603,63.796 379.603,64.053ZM379.497,64.053C379.497,63.857 379.427,63.781 379.317,63.781C379.208,63.781 379.138,63.857 379.138,64.053L379.138,64.21C379.138,64.407 379.208,64.483 379.317,64.483C379.427,64.483 379.497,64.407 379.497,64.21L379.497,64.053Z" style="fill:rgb(27,23,24);fill-rule:nonzero;"/>
        </g>
        <g id="path188" transform="matrix(1,0,0,1,-355.3,-9.66)">
            <path d="M380.275,63.94L380.275,63.965C380.275,64.032 380.247,64.107 380.165,64.147C380.237,64.184 380.275,64.251 380.275,64.329L380.275,64.345C380.275,64.518 380.159,64.572 379.986,64.572C379.911,64.572 379.845,64.56 379.789,64.549C379.777,64.546 379.767,64.537 379.767,64.527L379.767,64.486C379.767,64.473 379.775,64.466 379.787,64.466C379.788,64.466 379.789,64.466 379.79,64.466C379.866,64.476 379.918,64.484 379.986,64.484C380.117,64.484 380.167,64.441 380.167,64.345L380.167,64.329C380.167,64.267 380.143,64.191 380.031,64.191L379.819,64.191C379.806,64.191 379.797,64.181 379.797,64.168L379.797,64.128C379.797,64.115 379.806,64.107 379.819,64.107L380.031,64.107C380.137,64.107 380.167,64.027 380.167,63.965L380.167,63.94C380.167,63.829 380.112,63.78 379.986,63.78C379.931,63.78 379.86,63.787 379.79,63.796C379.789,63.796 379.788,63.796 379.787,63.796C379.775,63.796 379.767,63.789 379.767,63.776L379.767,63.737C379.767,63.725 379.777,63.717 379.789,63.714C379.845,63.702 379.912,63.691 379.986,63.691C380.156,63.691 380.275,63.766 380.275,63.94Z" style="fill:rgb(27,23,24);fill-rule:nonzero;"/>
        </g>
        <g id="path190" transform="matrix(1,0,0,1,-355.3,-9.66)">
            <path d="M380.988,63.962L380.988,63.98C380.988,64.166 380.854,64.223 380.637,64.223L380.582,64.223L380.601,64.475L380.935,64.475C380.948,64.475 380.958,64.48 380.958,64.493L380.958,64.544C380.958,64.557 380.948,64.564 380.935,64.564L380.535,64.564C380.523,64.564 380.512,64.556 380.512,64.544L380.479,64.157L380.479,64.156C380.479,64.145 380.487,64.136 380.498,64.136L380.637,64.136C380.808,64.136 380.881,64.096 380.881,63.98L380.881,63.962C380.881,63.844 380.822,63.78 380.691,63.78C380.633,63.78 380.56,63.783 380.487,63.796C380.485,63.796 380.484,63.796 380.481,63.796C380.471,63.796 380.464,63.79 380.464,63.779L380.464,63.735C380.464,63.72 380.473,63.716 380.486,63.712C380.544,63.698 380.615,63.691 380.691,63.691C380.879,63.691 380.988,63.79 380.988,63.962Z" style="fill:rgb(27,23,24);fill-rule:nonzero;"/>
        </g>
        <g id="path192" transform="matrix(1,0,0,1,-355.3,-9.66)">
            <path d="M381.715,64.053L381.715,64.21C381.715,64.468 381.605,64.572 381.43,64.572C381.254,64.572 381.143,64.468 381.143,64.21L381.143,64.053C381.143,63.796 381.254,63.691 381.43,63.691C381.605,63.691 381.715,63.796 381.715,64.053ZM381.609,64.053C381.609,63.857 381.539,63.781 381.43,63.781C381.32,63.781 381.25,63.857 381.25,64.053L381.25,64.21C381.25,64.407 381.32,64.483 381.43,64.483C381.539,64.483 381.609,64.407 381.609,64.21L381.609,64.053Z" style="fill:rgb(27,23,24);fill-rule:nonzero;"/>
        </g>
        <g id="path194" transform="matrix(1,0,0,1,-355.3,-9.66)">
            <path d="M382.417,63.986L382.417,63.993C382.417,64.18 382.283,64.236 382.131,64.236C382.059,64.236 382.003,64.223 381.956,64.212L381.956,64.226C381.956,64.378 381.975,64.484 382.155,64.484C382.229,64.484 382.295,64.477 382.354,64.465C382.356,64.465 382.358,64.464 382.361,64.464C382.372,64.464 382.382,64.471 382.382,64.485L382.382,64.531C382.382,64.544 382.369,64.549 382.355,64.553C382.308,64.563 382.247,64.572 382.155,64.572C381.956,64.572 381.851,64.475 381.851,64.226L381.851,64.022C381.851,63.794 381.96,63.691 382.133,63.691C382.323,63.691 382.417,63.802 382.417,63.986ZM382.312,63.986C382.312,63.829 382.241,63.777 382.133,63.777C382.02,63.777 381.956,63.832 381.956,64.022L381.956,64.132C381.998,64.143 382.075,64.153 382.131,64.153C382.224,64.153 382.312,64.118 382.312,63.993L382.312,63.986Z" style="fill:rgb(27,23,24);fill-rule:nonzero;"/>
        </g>
        <path id="path196" d="M340.075,187.745L328.658,177.975L328.658,181.557C328.658,183.964 326.706,185.922 324.304,185.922C321.887,185.922 319.933,183.964 319.933,181.557L319.933,170.51L301.906,155.073C300.081,153.507 299.864,150.754 301.438,148.925C302.3,147.912 303.513,147.397 304.753,147.397C305.754,147.397 306.763,147.747 307.59,148.444L340.377,176.523C341.899,177.619 343.931,177.619 345.457,176.523L378.248,148.447C380.078,146.892 382.824,147.1 384.396,148.935C385.97,150.758 385.761,153.511 383.916,155.077L345.755,187.745C344.114,189.147 341.716,189.147 340.075,187.745Z" style="fill:rgb(5,6,6);fill-rule:nonzero;"/>
        <path id="path198" d="M320.886,77.605C320.886,78.755 321.817,79.684 322.947,79.684L336.581,79.684C337.721,79.684 338.66,78.755 338.66,77.605L338.66,66.502C338.66,65.374 337.721,64.435 336.581,64.435L322.947,64.435C321.817,64.435 320.886,65.374 320.886,66.502L320.886,77.605ZM320.886,99.777C320.886,100.929 321.817,101.852 322.947,101.852L336.581,101.852C337.721,101.852 338.66,100.929 338.66,99.777L338.66,88.68C338.66,87.542 337.721,86.605 336.581,86.605L322.947,86.605C321.817,86.605 320.886,87.542 320.886,88.68L320.886,99.777ZM320.886,121.956C320.886,123.092 321.817,124.024 322.947,124.024L336.581,124.024C337.721,124.024 338.66,123.092 338.66,121.956L338.66,110.848C338.66,109.711 337.721,108.78 336.581,108.78L322.947,108.78C321.817,108.78 320.886,109.711 320.886,110.848L320.886,121.956ZM320.886,144.126C320.886,145.264 321.817,146.199 322.947,146.199L336.581,146.199C337.721,146.199 338.66,145.264 338.66,144.126L338.66,133.029C338.66,131.877 337.721,130.954 336.581,130.954L322.947,130.954C321.817,130.954 320.886,131.877 320.886,133.029L320.886,144.126ZM347.166,77.605C347.166,78.755 348.097,79.684 349.239,79.684L362.873,79.684C364.015,79.684 364.954,78.755 364.954,77.605L364.954,66.502C364.954,65.374 364.015,64.435 362.873,64.435L349.239,64.435C348.097,64.435 347.166,65.374 347.166,66.502L347.166,77.605ZM347.166,99.777C347.166,100.929 348.097,101.852 349.239,101.852L362.873,101.852C364.015,101.852 364.954,100.929 364.954,99.777L364.954,88.68C364.954,87.542 364.015,86.605 362.873,86.605L349.239,86.605C348.097,86.605 347.166,87.542 347.166,88.68L347.166,99.777ZM347.166,121.956C347.166,123.092 348.097,124.024 349.239,124.024L362.873,124.024C364.015,124.024 364.954,123.092 364.954,121.956L364.954,110.848C364.954,109.711 364.015,108.78 362.873,108.78L349.239,108.78C348.097,108.78 347.166,109.711 347.166,110.848L347.166,121.956ZM347.166,144.126C347.166,145.264 348.097,146.199 349.239,146.199L362.873,146.199C364.015,146.199 364.954,145.264 364.954,144.126L364.954,133.029C364.954,131.877 364.015,130.954 362.873,130.954L349.239,130.954C348.097,130.954 347.166,131.877 347.166,133.029L347.166,144.126ZM313.466,60.563L313.466,59.258C313.466,56.993 315.316,55.147 317.581,55.147L368.241,55.147C370.514,55.147 372.366,56.993 372.366,59.258L372.366,146.078C372.366,148.342 370.943,151.392 369.202,152.841L346.076,172.107C344.343,173.552 341.491,173.552 339.746,172.107L316.64,152.841C314.887,151.392 313.466,148.342 313.466,146.078L313.466,60.563Z" style="fill:rgb(5,6,6);fill-rule:nonzero;"/>
        <g id="g5292" transform="matrix(1,0,0,1,-405,0)">
            <path id="path240" d="M576.283,81.713L575.524,81.713L575.524,80.687C575.524,80.139 575.194,79.694 574.787,79.694C574.38,79.694 574.05,80.139 574.05,80.687L574.05,81.713L573.29,81.713C572.883,81.713 572.553,82.157 572.553,82.705C572.553,83.255 572.883,83.699 573.29,83.699L574.05,83.699L574.05,84.724C574.05,85.272 574.38,85.717 574.787,85.717C575.194,85.717 575.524,85.272 575.524,84.724L575.524,83.699L576.283,83.699C576.69,83.699 577.02,83.255 577.02,82.705C577.02,82.157 576.69,81.713 576.283,81.713ZM572.553,59.421C572.553,59.97 572.883,60.414 573.29,60.414L576.283,60.414C576.69,60.414 577.02,59.97 577.02,59.421C577.02,58.873 576.69,58.428 576.283,58.428L573.29,58.428C572.883,58.428 572.553,58.873 572.553,59.421ZM566.729,86.452L566.729,57.548C566.729,56.223 567.528,55.147 568.51,55.147L581.064,55.147C582.045,55.147 582.844,56.223 582.844,57.548L582.844,86.452C582.844,87.776 582.045,88.853 581.064,88.853L568.51,88.853C567.528,88.853 566.729,87.776 566.729,86.452Z" style="fill:rgb(16,15,13);fill-rule:nonzero;stroke:rgb(5,6,6);stroke-width:0.24px;"/>
            <path id="path242" d="M576.283,89.743C576.69,89.743 577.02,90.188 577.02,90.736C577.02,91.286 576.69,91.73 576.283,91.73L573.29,91.73C572.883,91.73 572.553,91.286 572.553,90.736C572.553,90.188 572.883,89.743 573.29,89.743L576.283,89.743Z" style="fill:rgb(16,15,13);fill-rule:nonzero;stroke:rgb(5,6,6);stroke-width:0.24px;"/>
        </g>
        <rect id="path248" x="46.08" y="18.24" width="30.72" height="23.28" style="fill:white;stroke:rgb(5,6,6);stroke-width:2px;"/>
        <path id="path250" d="M41.52,29.76L55.68,29.76L61.92,36" style="fill:none;stroke:rgb(5,6,6);stroke-width:2.5px;"/>
        <path id="path252" d="M63.6,30.48L80.16,30.48" style="fill:none;stroke:rgb(5,6,6);stroke-width:2.5px;"/>
        <path id="path254" d="M61.68,37.68C62.607,37.68 63.36,36.927 63.36,36C63.36,35.073 62.607,34.32 61.68,34.32C60.753,34.32 60,35.073 60,36C60,36.927 60.753,37.68 61.68,37.68Z" style="fill:rgb(5,6,6);"/>
    </g>
</svg>
